<svg width="114" height="237" viewBox="0 0 114 237" fill="none" xmlns="http://www.w3.org/2000/svg">
<g filter="url(#filter0_d_174_25)">
<path d="M6 2C54.7501 2 108.348 26.7948 107.998 81.5575C107.754 119.767 55.0695 127.969 34.6364 99.4931C28.9075 91.509 28.5441 80.6844 41.0113 81.7579C58.1704 83.2354 74.883 98.1882 84.7249 111.116C111.349 146.088 64.666 174.744 51.535 204" stroke="white" stroke-width="3" stroke-linecap="round"/>
<path d="M41 183C42.2442 193.164 45.315 203.33 46.328 213.362C46.4554 214.624 46.0148 227 46.8307 227C49.6673 227 58.3379 211.851 60 209.778C65.2682 203.209 69.7295 195.543 79 195.543" stroke="white" stroke-width="3" stroke-linecap="round"/>
</g>
<defs>
<filter id="filter0_d_174_25" x="0.5" y="0.5" width="113" height="236" filterUnits="userSpaceOnUse" color-interpolation-filters="sRGB">
<feFlood flood-opacity="0" result="BackgroundImageFix"/>
<feColorMatrix in="SourceAlpha" type="matrix" values="0 0 0 0 0 0 0 0 0 0 0 0 0 0 0 0 0 0 127 0" result="hardAlpha"/>
<feOffset dy="4"/>
<feGaussianBlur stdDeviation="2"/>
<feComposite in2="hardAlpha" operator="out"/>
<feColorMatrix type="matrix" values="0 0 0 0 0 0 0 0 0 0 0 0 0 0 0 0 0 0 0.25 0"/>
<feBlend mode="normal" in2="BackgroundImageFix" result="effect1_dropShadow_174_25"/>
<feBlend mode="normal" in="SourceGraphic" in2="effect1_dropShadow_174_25" result="shape"/>
</filter>
</defs>
</svg>
